<?xml version="1.0" encoding="UTF-8"?>
<svg id="Layer_1" xmlns="http://www.w3.org/2000/svg" version="1.1" xmlns:xlink="http://www.w3.org/1999/xlink" viewBox="0 0 500 500">
  <!-- Generator: Adobe Illustrator 29.5.1, SVG Export Plug-In . SVG Version: 2.1.0 Build 141)  -->
  <defs>
    <style>
      .st0, .st1 {
        fill: #0a000f;
      }

      .st0, .st2, .st3 {
        display: none;
      }

      .st4 {
        fill: #fff;
      }

      .st5 {
        fill: #e0e1e2;
      }

      .st6 {
        fill: url(#radial-gradient1);
      }

      .st7 {
        fill: url(#radial-gradient2);
      }

      .st3 {
        fill: url(#radial-gradient);
      }

      .st8 {
        fill: url(#radial-gradient3);
      }
    </style>
    <radialGradient id="radial-gradient" cx="74.14" cy="44.84" fx="74.14" fy="44.84" r="284.72" gradientTransform="translate(0 502) scale(1 -1)" gradientUnits="userSpaceOnUse">
      <stop offset="0" stop-color="#f9ed41"/>
      <stop offset=".24" stop-color="#ff833d"/>
      <stop offset=".4" stop-color="#ee5568"/>
      <stop offset=".49" stop-color="#e7407b"/>
      <stop offset="1" stop-color="#0028ff"/>
    </radialGradient>
    <radialGradient id="radial-gradient1" cx="294.29" cy="119.08" fx="294.29" fy="119.08" r="142.09" gradientTransform="translate(0 502) scale(1 -1)" gradientUnits="userSpaceOnUse">
      <stop offset="0" stop-color="#f9ed41"/>
      <stop offset=".24" stop-color="#ff833d"/>
      <stop offset=".4" stop-color="#ee5568"/>
      <stop offset=".49" stop-color="#e7407b"/>
      <stop offset="1" stop-color="#0028ff"/>
    </radialGradient>
    <radialGradient id="radial-gradient2" cx="294.29" cy="119.08" fx="294.29" fy="119.08" r="142.09" gradientTransform="translate(0 502) scale(1 -1)" gradientUnits="userSpaceOnUse">
      <stop offset="0" stop-color="#f9ed41"/>
      <stop offset=".24" stop-color="#ff833d"/>
      <stop offset=".4" stop-color="#ee5568"/>
      <stop offset=".49" stop-color="#e7407b"/>
      <stop offset="1" stop-color="#0028ff"/>
    </radialGradient>
    <radialGradient id="radial-gradient3" cx="294.29" cy="119.08" fx="294.29" fy="119.08" r="142.08" gradientTransform="translate(0 502) scale(1 -1)" gradientUnits="userSpaceOnUse">
      <stop offset="0" stop-color="#f9ed41"/>
      <stop offset=".24" stop-color="#ff833d"/>
      <stop offset=".4" stop-color="#ee5568"/>
      <stop offset=".49" stop-color="#e7407b"/>
      <stop offset="1" stop-color="#0028ff"/>
    </radialGradient>
  </defs>
  <g id="Elements">
    <g>
      <g class="st2">
        <path class="st1" d="M185.97,230.23h-57.23c-21.91,0-39.67-17.76-39.67-39.67v-57.23c0-21.91,17.76-39.67,39.67-39.67h57.23c21.91,0,39.67,17.76,39.67,39.67v57.23c0,21.91-17.76,39.67-39.67,39.67Z"/>
        <g>
          <path class="st4" d="M172.28,200.46h-29.86c-13,0-23.58-10.58-23.58-23.58v-29.86c0-13,10.58-23.58,23.58-23.58h29.86c13,0,23.58,10.58,23.58,23.58v29.86c0,13-10.58,23.58-23.58,23.58ZM142.42,129.2c-9.82,0-17.82,7.99-17.82,17.82v29.86c0,9.82,7.99,17.82,17.82,17.82h29.86c9.82,0,17.82-7.99,17.82-17.82v-29.86c0-9.82-7.99-17.82-17.82-17.82h-29.86Z"/>
          <path class="st4" d="M157.35,181.43c-10.74,0-19.48-8.74-19.48-19.49s8.74-19.49,19.48-19.49,19.49,8.74,19.49,19.49-8.74,19.49-19.49,19.49ZM157.35,148.37c-7.49,0-13.58,6.09-13.58,13.58s6.09,13.58,13.58,13.58,13.58-6.09,13.58-13.58-6.09-13.58-13.58-13.58Z"/>
          <path class="st4" d="M184.03,140.34c0,2.8-2.27,5.07-5.07,5.07s-5.07-2.27-5.07-5.07,2.27-5.07,5.07-5.07,5.07,2.27,5.07,5.07Z"/>
        </g>
      </g>
      <path class="st3" d="M185.97,409.3h-57.23c-21.91,0-39.67-17.76-39.67-39.67v-57.23c0-21.91,17.76-39.67,39.67-39.67h57.23c21.91,0,39.67,17.76,39.67,39.67v57.23c0,21.91-17.76,39.67-39.67,39.67Z"/>
      <g class="st2">
        <path class="st4" d="M172.28,379.53h-29.86c-13,0-23.58-10.58-23.58-23.58v-29.86c0-13,10.58-23.58,23.58-23.58h29.86c13,0,23.58,10.58,23.58,23.58v29.86c0,13-10.58,23.58-23.58,23.58ZM142.42,308.27c-9.82,0-17.82,7.99-17.82,17.82v29.86c0,9.82,7.99,17.82,17.82,17.82h29.86c9.82,0,17.82-7.99,17.82-17.82v-29.86c0-9.82-7.99-17.82-17.82-17.82h-29.86Z"/>
        <path class="st4" d="M157.35,360.5c-10.74,0-19.48-8.74-19.48-19.48s8.74-19.48,19.48-19.48,19.49,8.74,19.49,19.48-8.74,19.48-19.49,19.48ZM157.35,327.43c-7.49,0-13.58,6.09-13.58,13.58s6.09,13.58,13.58,13.58,13.58-6.09,13.58-13.58-6.09-13.58-13.58-13.58Z"/>
        <path class="st4" d="M184.03,319.41c0,2.8-2.27,5.07-5.07,5.07s-5.07-2.27-5.07-5.07,2.27-5.07,5.07-5.07,5.07,2.27,5.07,5.07Z"/>
      </g>
      <g>
        <g>
          <path class="st5" d="M288.8,376.45h-93.61c-40.76,0-73.92-33.16-73.92-73.92v-93.61c0-40.76,33.16-73.92,73.92-73.92h93.61c40.76,0,73.92,33.16,73.92,73.92v93.61c0,40.76-33.16,73.92-73.92,73.92ZM195.2,153.08c-30.79,0-55.84,25.05-55.84,55.84v93.61c0,30.79,25.05,55.84,55.84,55.84h93.61c30.79,0,55.85-25.05,55.85-55.84v-93.61c0-30.79-25.05-55.84-55.85-55.84h-93.61Z"/>
          <path class="st5" d="M242,316.8c-33.68,0-61.07-27.4-61.07-61.08s27.4-61.08,61.07-61.08,61.08,27.4,61.08,61.08-27.4,61.08-61.08,61.08ZM242,213.16c-23.47,0-42.56,19.09-42.56,42.56s19.09,42.56,42.56,42.56,42.56-19.09,42.56-42.56-19.09-42.56-42.56-42.56Z"/>
          <path class="st5" d="M325.62,188.01c0,8.78-7.12,15.9-15.9,15.9s-15.9-7.12-15.9-15.9,7.12-15.9,15.9-15.9,15.9,7.12,15.9,15.9Z"/>
        </g>
        <path class="st0" d="M323.89,433.97h-147.78c-60.7,0-110.08-49.38-110.08-110.07v-147.78c0-60.7,49.38-110.08,110.08-110.08h147.78c60.7,0,110.07,49.38,110.07,110.08v147.78c0,60.7-49.38,110.07-110.07,110.07ZM176.11,81.31c-52.27,0-94.8,42.53-94.8,94.8v147.78c0,52.27,42.53,94.8,94.8,94.8h147.78c52.27,0,94.8-42.52,94.8-94.8v-147.78c0-52.27-42.52-94.8-94.8-94.8h-147.78Z"/>
      </g>
      <g class="st2">
        <path class="st4" d="M368.31,409.3h-57.23c-21.91,0-39.67-17.76-39.67-39.67v-57.23c0-21.91,17.76-39.67,39.67-39.67h57.23c21.91,0,39.67,17.76,39.67,39.67v57.23c0,21.91-17.76,39.67-39.67,39.67Z"/>
        <g>
          <path class="st6" d="M354.62,379.53h-29.86c-13,0-23.58-10.58-23.58-23.58v-29.86c0-13,10.58-23.58,23.58-23.58h29.86c13,0,23.58,10.58,23.58,23.58v29.86c0,13-10.58,23.58-23.58,23.58ZM324.76,308.27c-9.82,0-17.82,7.99-17.82,17.82v29.86c0,9.82,7.99,17.82,17.82,17.82h29.86c9.82,0,17.82-7.99,17.82-17.82v-29.86c0-9.82-7.99-17.82-17.82-17.82h-29.86Z"/>
          <path class="st7" d="M339.69,360.5c-10.74,0-19.48-8.74-19.48-19.48s8.74-19.48,19.48-19.48,19.48,8.74,19.48,19.48-8.74,19.48-19.48,19.48ZM339.69,327.43c-7.49,0-13.58,6.09-13.58,13.58s6.09,13.58,13.58,13.58,13.58-6.09,13.58-13.58-6.09-13.58-13.58-13.58Z"/>
          <path class="st8" d="M366.37,319.41c0,2.8-2.27,5.07-5.07,5.07s-5.07-2.27-5.07-5.07,2.27-5.07,5.07-5.07,5.07,2.27,5.07,5.07Z"/>
        </g>
      </g>
    </g>
  </g>
</svg>