<?xml version="1.0" encoding="UTF-8"?>
<svg id="Layer_1" xmlns="http://www.w3.org/2000/svg" version="1.1" xmlns:xlink="http://www.w3.org/1999/xlink" viewBox="0 0 500 500">
  <!-- Generator: Adobe Illustrator 29.5.1, SVG Export Plug-In . SVG Version: 2.1.0 Build 141)  -->
  <defs>
    <style>
      .st0 {
        fill: none;
        stroke: #e3e0e5;
        stroke-linecap: round;
        stroke-linejoin: round;
        stroke-width: 22px;
      }

      .st1 {
        fill: #fff;
      }

      .st2 {
        fill: url(#linear-gradient1);
      }

      .st3 {
        fill: #ecebec;
      }

      .st4 {
        fill: #e3e0e5;
      }

      .st5 {
        fill: #acaaae;
      }

      .st6 {
        fill: #d2d0d4;
      }

      .st7 {
        fill: #e1e1e2;
      }

      .st8 {
        display: none;
      }

      .st9 {
        fill: url(#linear-gradient);
      }

      .st10 {
        fill: #fdfdfd;
      }
    </style>
    <linearGradient id="linear-gradient" x1="-80.64" y1="-976.82" x2="110.48" y2="-1167.94" gradientTransform="translate(0 -996) scale(1 -1)" gradientUnits="userSpaceOnUse">
      <stop offset="0" stop-color="#e3e0e5"/>
      <stop offset="1" stop-color="#d2d0d4"/>
    </linearGradient>
    <linearGradient id="linear-gradient1" x1="269.64" y1="-976.82" x2="460.76" y2="-1167.94" gradientTransform="translate(0 -996) scale(1 -1)" gradientUnits="userSpaceOnUse">
      <stop offset="0" stop-color="#e3e0e5"/>
      <stop offset="1" stop-color="#d2d0d4"/>
    </linearGradient>
  </defs>
  <g id="OBJECTS">
    <g class="st8">
      <circle class="st9" cx="14.92" cy="76.38" r="135.14"/>
      <g>
        <polygon class="st3" points="-29.82 87.21 -14.27 129.38 54.73 33.53 -29.82 87.21"/>
        <polygon class="st7" points="-12.57 96.57 -14.05 129.8 22.35 98.91 -12.57 96.57"/>
        <path class="st10" d="M71.61,17.33l-136,51.68c-3.84,1.46-3.75,6.92.16,8.24l35.07,11.84L50.7,37.56-12.56,96.55l49.23,37.37c5.12,3.89,12.56,1.27,14.11-4.96l26.61-106.48c.86-3.44-2.5-6.42-5.8-5.16h0Z"/>
      </g>
    </g>
    <g class="st8">
      <circle class="st2" cx="365.2" cy="76.38" r="135.14"/>
      <path class="st5" d="M426.3,18.1l-142.49,58.3,127.13,127.13c47.65-17.14,82.86-60.28,88.57-112.29l-73.21-73.15h0v.02Z"/>
      <g>
        <polygon class="st3" points="320.48 87.21 336.02 129.38 405.04 33.53 320.48 87.21"/>
        <polygon class="st7" points="337.73 96.57 336.23 129.8 372.66 98.91 337.73 96.57"/>
        <path class="st10" d="M421.89,17.33l-136,51.68c-3.84,1.46-3.75,6.92.16,8.24l35.07,11.84,79.86-51.53-63.25,58.99,49.25,37.37c5.12,3.89,12.56,1.27,14.11-4.96l26.61-106.48c.86-3.44-2.5-6.42-5.8-5.16h-.02Z"/>
      </g>
    </g>
    <g class="st8">
      <g class="st8">
        <circle class="st1" cx="365.2" cy="415.84" r="131.57"/>
        <path class="st4" d="M365.2,287.85c70.59,0,128.01,57.42,128.01,128.01s-57.42,128.01-128.01,128.01-128.01-57.42-128.01-128.01,57.42-128.01,128.01-128.01M365.2,280.72c-74.64,0-135.14,60.51-135.14,135.14s60.51,135.14,135.14,135.14,135.14-60.51,135.14-135.14-60.51-135.14-135.14-135.14h0Z"/>
      </g>
      <g>
        <polygon class="st6" points="320.48 426.69 336.02 468.86 405.04 373.01 320.48 426.69"/>
        <polygon class="st5" points="337.73 436.05 336.23 469.28 372.66 438.39 337.73 436.05"/>
        <path class="st4" d="M421.89,356.83l-136,51.68c-3.84,1.46-3.75,6.94.16,8.24l35.07,11.84,79.86-51.53-63.25,58.99,49.25,37.37c5.12,3.89,12.56,1.27,14.11-4.96l26.61-106.48c.86-3.44-2.5-6.42-5.8-5.16h-.02Z"/>
      </g>
    </g>
    <g>
      <g class="st8">
        <circle class="st1" cx="216.08" cy="214.71" r="327.38"/>
        <path class="st4" d="M216.02-103.75c175.62,0,318.5,142.88,318.5,318.5s-142.88,318.5-318.5,318.5S-102.48,390.35-102.48,214.73,40.41-103.77,216.02-103.77M216.02-121.5C30.33-121.5-120.23,29.04-120.23,214.75S30.31,551,216.02,551s336.25-150.54,336.25-336.25S401.72-121.5,216.02-121.5h0Z"/>
      </g>
      <g>
        <line class="st0" x1="136.84" y1="304.26" x2="185.89" y2="436.73"/>
        <polygon class="st0" points="191.5 328.79 186.59 438.12 256.96 378.47 191.5 328.79"/>
        <path class="st0" d="M468.45,68.1L20.94,238.15c-12.65,4.8-12.31,22.8.5,27.13l115.41,38.99,262.79-157.85-208.14,182.38,162.02,122.96c16.86,12.79,41.3,4.19,46.43-16.34l87.59-350.34c2.82-11.31-8.22-21.12-19.1-16.98h0Z"/>
      </g>
    </g>
  </g>
</svg>